<svg xmlns="http://www.w3.org/2000/svg" xmlns:xlink="http://www.w3.org/1999/xlink" viewBox="0 0 82.45 97.18"><defs><style>.cls-1{fill:url(#linear-gradient);}.cls-2{fill:url(#linear-gradient-2);}</style><linearGradient id="linear-gradient" x1="89.14" y1="-33.27" x2="-44.58" y2="87.69" gradientUnits="userSpaceOnUse"><stop offset="0.17" stop-color="#78ceda"/><stop offset="0.44" stop-color="#5cbae9"/><stop offset="0.66" stop-color="#5889c7"/><stop offset="0.8" stop-color="#5671b6"/></linearGradient><linearGradient id="linear-gradient-2" x1="113.06" y1="20.69" x2="-15.61" y2="139.29" gradientUnits="userSpaceOnUse"><stop offset="0.16" stop-color="#d1bada"/><stop offset="0.31" stop-color="#b59fcc"/><stop offset="0.51" stop-color="#9681bc"/><stop offset="0.62" stop-color="#8a76b6"/><stop offset="0.76" stop-color="#7466ad"/><stop offset="0.88" stop-color="#5d54a4"/></linearGradient></defs><g id="Layer_2" data-name="Layer 2"><g id="Layer_1-2" data-name="Layer 1"><path class="cls-1" d="M65.35,0H0A23.75,23.75,0,0,0,23.75,23.75H45.51L7.31,69.26c-1.1,1.34-3.32,5-4.62,7.12a18.66,18.66,0,0,0-1.1,2.07A18.24,18.24,0,0,0,0,85.7a22.44,22.44,0,0,0,1.3,7.85L75.5,3.68A15.77,15.77,0,0,0,65.35,0Z"/><path class="cls-2" d="M58.7,73.43H35.34s32.17-40,40.73-50.93a17.17,17.17,0,0,0,3.78-10.45v-.18a15.81,15.81,0,0,0-1.76-7.22L3.25,95.3a14.38,14.38,0,0,0,1.86,1.88H82.45A23.75,23.75,0,0,0,58.7,73.43Z"/></g></g></svg>